,
  Hottest scene tracker on the net !!!   http://www.scenetime.com
 
         Please seed back after your download is completed

           Credit goes  to all seeders and  http://www.scenetime.com
 



...................................NFO:.................................................[pre]  
    *********** ****    ****      ***      ******** *********** ****    *** **********
           *+*     +*+*+* *+*+*+   *+* *+*   *+*    *+*    *+*     *+*+*   *+* *+*        
           +*+     +*+ +*+*+ +*+  +*+   +*+  +*+           +*+     *+*+*+  +*+ +*+        
           +$+     +$+  +*+  +$+ +$++*++$++* *$*           +$+     +$+ +*+ +$+ +$++*++$  
           +$+     +$+       +$+ +$+     +$+ +$+   +$+$    +$+     +$+  +$+$+$ +$+        
           $+$     $+$       $+$ $+$     $+$ $+$    $+$    $+$     $+$   $+$+$ $+$        
       $$$$$$$$$$$ $$$       $$$ $$$     $$$  $$$$$$$$ $$$$$$$$$$$ $$$    $$$$ $$$$$$$$$$     
                                                



                           Another Fine Release Brought to you from - IMAGiNE                   
                                                 

********************************************************************************************************************                                
                               The Other Guys R5 LiNE XViD - IMAGiNE
********************************************************************************************************************

Ripper ...........: IMAGiNE                                        IMDB Rating.......:7.2/10                             
Video Codec.......: XVID                                         Release Date......:23/10/10
Audio Codec.......:AC3                                           Theatre Date......:06/08/10
Audio Bitrate.....:192                                              Runtime.......:1h 43mn
Subtitles.........:NIL                                                 Language..........:ENGLISH
Resolution...... 720 x 304                                      IMDb URL..........:http://www.imdb.com/title/tt1386588/


[color=yellow]DETAILS:[/color]

Video
ID                               : 0
Format                           : MPEG-4 Visual
Format profile                   : Advanced Simple@L5
Format settings, BVOP            : Yes
Format settings, QPel            : No
Format settings, GMC             : No warppoints
Format settings, Matrix          : Default (H.263)
Muxing mode                      : Packed bitstream
Codec ID                         : XVID
Codec ID/Hint                    : XviD
Duration                         : 1h 43mn
Bit rate                         : 1 692 Kbps
Width                            : 720 pixels
Height                           : 304 pixels
Display aspect ratio             : 2.35
Frame rate                       : 25.000 fps
Resolution                       : 24 bits
Colorimetry                      : 4:2:0
Scan type                        : Progressive
Bits/(Pixel*Frame)               : 0.309
Stream size                      : 1.22 GiB (89%)
Writing library                  : XviD 1.1.2 (UTC 2006-11-01)

Audio
ID                               : 1
Format                           : AC-3
Format/Info                      : Audio Coding 3
Codec ID                         : 2000
Duration                         : 1h 43mn
Bit rate mode                    : Constant
Bit rate                         : 192 Kbps
Channel(s)                       : 2 channels
Channel positions                : L R
Sampling rate                    : 48.0 KHz
Stream size                      : 141 MiB (10%)
Alignment                        : Split accross interleaves
Interleave, duration             : 40 ms (1.00 video frame)
Interleave, preload duration     : 500 ms



[color=yellow]SOURCES:[/color]

VIDEO:The Other Guys  Russian dvd ..............Thanks UG
AUDIO:The Other Guys DVDSCR AC3 NTSC.... Abe Thanks Mate :) + Rx for the sync

[color=yellow]NOTES:[/color]

IMAGiNE bringing you another release..........The Other Guys

Sorry we're late with this one and wall street....by damn work got in the way :lol:
Anyway ....for this we used the audio off the screener,but we borrowed Rx's already synced audio ( thanks guys ) as it
saved time on us syncing it,and for the video we used the r5 dvdr that was released.
Now the video we thought was ok for a r5 but by far not the best they've released.....anyway we made a script and added
white balance,sharpness,chroma,contrast,brightness,rgb eq to it and then dropped it in vdub to encode.
The audio we just muxed to our encode afterwards.

Enjoy folks....we know there is already several good versions out there but we're just adding another one to that list ;-)


[color=yellow]SCREENS:[/color]

[IMG]http://imagine.takagari.com/The%20other%20guys%20r5/vlcsnap-130552.png[/IMG]
[IMG]http://imagine.takagari.com/The%20other%20guys%20r5/vlcsnap-131648.png[/IMG]
[IMG]http://imagine.takagari.com/The%20other%20guys%20r5/vlcsnap-131766.png[/IMG]
[IMG]http://imagine.takagari.com/The%20other%20guys%20r5/vlcsnap-132951.png[/IMG]
[IMG]http://imagine.takagari.com/The%20other%20guys%20r5/vlcsnap-133160.png[/IMG]


[color=yellow]GREETS:[/color]

FLAWL3SS,ViSiON,FUSiON,Rx,SecretMyth,BirdFlu,ELEKTRI4KA and Autotron
And to all the other p2p grps past and present 

[COLOR=RED]Looking for these,syncers,cammers,silver supplier.....Have anything to offer????......
Contact us imaginegroup@hushmail.com[/COLOR][/pre]